<?xml version="1.0" encoding="UTF-8"?>
<!DOCTYPE svg PUBLIC "-//W3C//DTD SVG 1.1//EN" "http://www.w3.org/Graphics/SVG/1.1/DTD/svg11.dtd">
<svg xmlns="http://www.w3.org/2000/svg" version="1.1" width="1601px" height="788px" style="shape-rendering:geometricPrecision; text-rendering:geometricPrecision; image-rendering:optimizeQuality; fill-rule:evenodd; clip-rule:evenodd" xmlns:xlink="http://www.w3.org/1999/xlink">
<g><path style="opacity:0.992" fill="#f4f5f4" d="M 1370.5,-0.5 C 1378.17,-0.5 1385.83,-0.5 1393.5,-0.5C 1420.47,5.97159 1436.3,22.9716 1441,50.5C 1441.98,173.516 1441.64,296.516 1440,419.5C 1432.27,483.477 1403.77,535.977 1354.5,577C 1294.9,625.15 1227.23,641.816 1151.5,627C 1125.71,621.515 1101.54,612.015 1079,598.5C 1017.9,633.216 953.396,641.05 885.5,622C 815.697,598.199 765.53,552.699 735,485.5C 721.545,450.105 715.212,413.439 716,375.5C 707.484,330.655 682.317,299.155 640.5,281C 582.836,262.892 535.336,277.392 498,324.5C 485.655,342.205 478.655,361.871 477,383.5C 476.962,458.183 476.296,532.85 475,607.5C 466.37,673.633 433.204,723.133 375.5,756C 341.195,773.94 304.862,784.44 266.5,787.5C 255.5,787.5 244.5,787.5 233.5,787.5C 196.071,775.659 180.904,750.325 188,711.5C 195.22,689.612 210.054,676.112 232.5,671C 251.329,669.98 269.995,667.646 288.5,664C 310.226,658.901 328.392,648.068 343,631.5C 349.233,623.043 353.233,613.71 355,603.5C 301.319,631.504 244.819,639.004 185.5,626C 111.193,606.027 57.0263,561.527 23,492.5C 10.2896,463.985 2.4563,434.318 -0.5,403.5C -0.5,391.5 -0.5,379.5 -0.5,367.5C 9.04451,282.789 51.3778,220.289 126.5,180C 180.987,154.872 237.654,148.538 296.5,161C 344.886,173.102 385.719,197.602 419,234.5C 482.928,166.862 560.761,142.362 652.5,161C 728.648,181.812 783.481,227.979 817,299.5C 824.771,318.15 830.105,337.483 833,357.5C 834.679,375.81 836.012,394.143 837,412.5C 847.15,461.987 876.317,494.487 924.5,510C 946.585,514.902 968.585,514.568 990.5,509C 991.308,508.692 991.975,508.192 992.5,507.5C 965.928,455.937 958.095,401.603 969,344.5C 979.962,292.912 1005.13,249.746 1044.5,215C 1100.88,166.227 1166.22,147.227 1240.5,158C 1269.6,162.978 1296.93,172.811 1322.5,187.5C 1323.33,140.837 1323.83,94.1702 1324,47.5C 1329.9,22.0972 1345.4,6.0972 1370.5,-0.5 Z M 226.5,273.5 C 285.069,270.35 326.903,295.016 352,347.5C 368.283,404.672 351.783,449.506 302.5,482C 259.497,504 216.497,504 173.5,482C 130.15,456.122 113.317,418.288 123,368.5C 135.01,322.155 163.843,291.655 209.5,277C 215.315,275.871 220.981,274.705 226.5,273.5 Z M 1188.5,273.5 C 1249.08,270.356 1291.58,296.356 1316,351.5C 1333.52,411.265 1317.02,459.098 1266.5,495C 1236.77,512.342 1205.11,517.009 1171.5,509C 1123.33,493.496 1094.16,460.996 1084,411.5C 1078.14,357.392 1098.31,316.225 1144.5,288C 1158.46,280.622 1173.13,275.789 1188.5,273.5 Z"/></g>
<g><path style="opacity:0.979" fill="#f4f5f4" d="M 1600.5,210.5 C 1600.5,212.833 1600.5,215.167 1600.5,217.5C 1595.81,249.347 1577.31,266.681 1545,269.5C 1518.56,267.782 1500.9,254.449 1492,229.5C 1485.71,199.243 1496.21,177.077 1523.5,163C 1552.38,153.501 1575.55,161.001 1593,185.5C 1597.21,193.455 1599.71,201.789 1600.5,210.5 Z"/></g>
<g><path style="opacity:0.984" fill="#00cb98" d="M 1600.5,562.5 C 1600.5,568.833 1600.5,575.167 1600.5,581.5C 1588.85,622.422 1577.01,663.422 1565,704.5C 1555.43,726.695 1538.43,737.695 1514,737.5C 1480.62,734.451 1462.12,716.284 1458.5,683C 1458.95,677.444 1459.79,671.944 1461,666.5C 1471.16,631.545 1481.16,596.545 1491,561.5C 1501.86,527.312 1525.03,513.479 1560.5,520C 1581.63,526.956 1594.96,541.122 1600.5,562.5 Z"/></g>
</svg>
